<svg width="1em" height="1em" viewBox="0 0 24 24" fill="none" xmlns="http://www.w3.org/2000/svg">
  <path fill-rule="evenodd" clip-rule="evenodd"
    d="M8.50199 6.25C6.12128 6.25 4.1083 8.01239 3.79366 10.3722L2.86033 17.3722C2.48065 20.2198 4.69591 22.75 7.56866 22.75H16.4312C19.3039 22.75 21.5192 20.2198 21.1395 17.3722L20.2062 10.3722C19.8915 8.01239 17.8786 6.25 15.4979 6.25H8.50199ZM7.25 6C7.25 3.37665 9.37665 1.25 12 1.25C14.6234 1.25 16.75 3.37665 16.75 6V9C16.75 9.41421 16.4142 9.75 16 9.75C15.5858 9.75 15.25 9.41421 15.25 9V6C15.25 4.20507 13.7949 2.75 12 2.75C10.2051 2.75 8.75 4.20507 8.75 6V9C8.75 9.41421 8.41421 9.75 8 9.75C7.58579 9.75 7.25 9.41421 7.25 9V6ZM12.0303 17.5303C11.7374 17.8232 11.2626 17.8232 10.9697 17.5303L8.96967 15.5303C8.67678 15.2374 8.67678 14.7626 8.96967 14.4697C9.26256 14.1768 9.73744 14.1768 10.0303 14.4697L11.5 15.9393L14.9697 12.4697C15.2626 12.1768 15.7374 12.1768 16.0303 12.4697C16.3232 12.7626 16.3232 13.2374 16.0303 13.5303L12.0303 17.5303Z"
    fill="currentColor" />
</svg>