<svg width="28px" height="28px" viewBox="0 0 32 32" enable-background="new 0 0 32 32" version="1.1" xml:space="preserve" xmlns="http://www.w3.org/2000/svg" xmlns:xlink="http://www.w3.org/1999/xlink" fill="#000000"><g id="SVGRepo_bgCarrier" stroke-width="0"></g><g id="SVGRepo_tracerCarrier" stroke-linecap="round" stroke-linejoin="round"></g><g id="SVGRepo_iconCarrier"> <g id="Layer_1"></g> <g id="Layer_2"> <g> <path d=" M23,26h7v-4v0c-1.7,0-3-1.4-3-3s1.3-3,3-3v0v-4h-7" fill="none" stroke="#69f26b" stroke-linecap="round" stroke-linejoin="round" stroke-miterlimit="10" stroke-width="2"></path> <path d=" M20,12H2v4v0c1.7,0,3,1.4,3,3s-1.3,3-3,3v0v4h18" fill="none" stroke="#69f26b" stroke-linecap="round" stroke-linejoin="round" stroke-miterlimit="10" stroke-width="2"></path> <line fill="none" stroke="#69f26b" stroke-linecap="round" stroke-linejoin="round" stroke-miterlimit="10" stroke-width="2" x1="23" x2="23" y1="12" y2="14"></line> <line fill="none" stroke="#69f26b" stroke-linecap="round" stroke-linejoin="round" stroke-miterlimit="10" stroke-width="2" x1="23" x2="23" y1="24" y2="26"></line> <line fill="none" stroke="#69f26b" stroke-linecap="round" stroke-linejoin="round" stroke-miterlimit="10" stroke-width="2" x1="8" x2="18" y1="16" y2="16"></line> <line fill="none" stroke="#69f26b" stroke-linecap="round" stroke-linejoin="round" stroke-miterlimit="10" stroke-width="2" x1="13" x2="18" y1="20" y2="20"></line> <line fill="none" stroke="#69f26b" stroke-linecap="round" stroke-linejoin="round" stroke-miterlimit="10" stroke-width="2" x1="22" x2="22" y1="6" y2="8"></line> <line fill="none" stroke="#69f26b" stroke-linecap="round" stroke-linejoin="round" stroke-miterlimit="10" stroke-width="2" x1="23" x2="23" y1="17" y2="21"></line> <line fill="none" stroke="#69f26b" stroke-linecap="round" stroke-linejoin="round" stroke-miterlimit="10" stroke-width="2" x1="26" x2="25" y1="8" y2="9"></line> <line fill="none" stroke="#69f26b" stroke-linecap="round" stroke-linejoin="round" stroke-miterlimit="10" stroke-width="2" x1="18" x2="19" y1="8" y2="9"></line> </g> </g> </g></svg>