<svg width="56px" height="56px" viewBox="0 0 1024 1024" enable-background="new 0 0 1024 1024" id="discount-coupon" version="1.1" xml:space="preserve" xmlns="http://www.w3.org/2000/svg" xmlns:xlink="http://www.w3.org/1999/xlink" fill="#000000"><g id="SVGRepo_bgCarrier" stroke-width="0"></g><g id="SVGRepo_tracerCarrier" stroke-linecap="round" stroke-linejoin="round"></g><g id="SVGRepo_iconCarrier"> <g> <g id="discount-coupon-label"> <rect fill="#4ec176" height="1024" width="1024"></rect> </g> <g id="discount-coupon-discount-coupon"> <g> <path d="M751.0605,794.96H272.9399v-10.2403c0-29.6396-17.1352-54.6895-37.4199-54.6895h-10.2397V293.9902H235.52 c20.2847,0,37.4199-25.0503,37.4199-54.7099V229.04h478.1206v10.2403c0,29.6596,17.1348,54.7099,37.42,54.7099h10.2392v436.0401 h-10.2392c-20.2852,0-37.42,25.0498-37.42,54.6895V794.96L751.0605,794.96z M292.8848,774.4805h438.2304 c3.3994-32.25,22.6153-58.0508,47.125-63.7608V313.2998c-24.5156-5.71-43.7304-31.5195-47.125-63.7798H292.8848 c-3.3946,32.2603-22.6099,58.0698-47.125,63.7798v397.4199C270.27,716.4297,289.4849,742.2305,292.8848,774.4805 L292.8848,774.4805z" fill="#FFFFFF"></path> </g> <g> <g> <polygon fill="#FFFFFF" points="430.3252,606.9697 415.9448,592.3906 593.6748,417.0303 608.0547,431.6104 430.3252,606.9697 "></polygon> </g> <g> <path d="M456.4502,500.3203c-24.0151,0-43.5552-19.3398-43.5552-43.1201 c0-23.7803,19.5401-43.1201,43.5552-43.1201c24.0298,0,43.5801,19.3398,43.5801,43.1201 C500.0303,480.9805,480.48,500.3203,456.4502,500.3203L456.4502,500.3203z M456.4502,434.5601 c-12.7256,0-23.0752,10.1596-23.0752,22.6401c0,12.4795,10.3496,22.6396,23.0752,22.6396 c12.7349,0,23.0996-10.1601,23.0996-22.6396C479.5498,444.7197,469.1851,434.5601,456.4502,434.5601L456.4502,434.5601z" fill="#FFFFFF"></path> </g> <g> <path d="M567.5649,609.9199c-24.0249,0-43.5747-19.3496-43.5747-43.1299 c0-23.7704,19.5498-43.1005,43.5747-43.1005c24.0103,0,43.5406,19.33,43.5406,43.1005 C611.1055,590.5703,591.5752,609.9199,567.5649,609.9199L567.5649,609.9199z M567.5649,544.1699 c-12.7348,0-23.0952,10.1504-23.0952,22.6201c0,12.4904,10.3604,22.6495,23.0952,22.6495 c12.7154,0,23.0601-10.1592,23.0601-22.6495C590.625,554.3203,580.2803,544.1699,567.5649,544.1699L567.5649,544.1699z" fill="#FFFFFF"></path> </g> </g> <g> <path d="M512,729.5996c-119.9854,0-217.6001-97.6191-217.6001-217.5996 c0-119.98,97.6147-217.5996,217.6001-217.5996c119.9844,0,217.5996,97.6196,217.5996,217.5996 C729.5996,631.9805,631.9844,729.5996,512,729.5996L512,729.5996z M512,314.8799c-108.6899,0-197.1201,88.4302-197.1201,197.1201 c0,108.6895,88.4302,197.1201,197.1201,197.1201c108.6895,0,197.1201-88.4306,197.1201-197.1201 C709.1201,403.3101,620.6895,314.8799,512,314.8799L512,314.8799z" fill="#FFFFFF"></path> </g> </g> </g> </g></svg>